<svg width="130" height="48" viewBox="0 0 130 48" fill="none" xmlns="http://www.w3.org/2000/svg">
<path d="M10.9008 24.18C8.7915 24.18 7.03683 23.928 5.63683 23.424C4.2555 22.92 3.2195 22.0893 2.52883 20.932C1.85683 19.756 1.52083 18.188 1.52083 16.228C1.52083 14.2307 1.86617 12.6627 2.55683 11.524C3.26617 10.3853 4.3115 9.57333 5.69283 9.088C7.09283 8.60267 8.82883 8.36 10.9008 8.36C13.0288 8.36 14.7835 8.612 16.1648 9.116C17.5462 9.60133 18.5728 10.4227 19.2448 11.58C19.9355 12.7187 20.2808 14.268 20.2808 16.228C20.2808 18.2253 19.9262 19.812 19.2168 20.988C18.5262 22.1453 17.4808 22.9667 16.0808 23.452C14.6995 23.9373 12.9728 24.18 10.9008 24.18ZM10.9008 21.856C12.1702 21.856 13.2155 21.7813 14.0368 21.632C14.8768 21.464 15.5208 21.184 15.9688 20.792C16.4355 20.3813 16.7528 19.8213 16.9208 19.112C17.1075 18.384 17.2008 17.4507 17.2008 16.312C17.2008 15.1547 17.1075 14.212 16.9208 13.484C16.7528 12.7373 16.4355 12.1587 15.9688 11.748C15.5208 11.3373 14.8768 11.0573 14.0368 10.908C13.2155 10.74 12.1702 10.656 10.9008 10.656C9.65017 10.656 8.61417 10.74 7.79283 10.908C6.9715 11.0573 6.3275 11.3373 5.86083 11.748C5.39417 12.1587 5.0675 12.7373 4.88083 13.484C4.71283 14.212 4.62883 15.1547 4.62883 16.312C4.62883 17.4507 4.72217 18.384 4.90883 19.112C5.0955 19.8213 5.42217 20.3813 5.88883 20.792C6.3555 21.184 6.9995 21.464 7.82083 21.632C8.64217 21.7813 9.66883 21.856 10.9008 21.856ZM9.41683 26.028L9.50083 17.04L9.41683 6.484H12.4128L12.3008 15.108L12.4128 26L9.41683 26.028ZM24.2249 26L24.3369 16.928L24.2249 6.484C24.2249 6.484 24.4302 6.46533 24.8409 6.428C25.2702 6.39067 25.8209 6.344 26.4929 6.288C27.1649 6.232 27.9022 6.18533 28.7049 6.148C29.5076 6.11067 30.2822 6.092 31.0289 6.092C32.8022 6.092 34.1742 6.652 35.1449 7.772C36.1342 8.87333 36.6289 10.5347 36.6289 12.756C36.6289 14.1373 36.4516 15.2853 36.0969 16.2C35.7422 17.096 35.2662 17.796 34.6689 18.3C34.0902 18.804 33.4276 19.168 32.6809 19.392C31.9529 19.5973 31.2062 19.7 30.4409 19.7C29.8249 19.7 29.1902 19.6813 28.5369 19.644C27.8836 19.588 27.4356 19.56 27.1929 19.56V26H24.2249ZM30.5809 17.264C31.1409 17.264 31.5889 17.2267 31.9249 17.152C32.2796 17.0773 32.5596 16.9467 32.7649 16.76C33.0449 16.48 33.2316 15.9853 33.3249 15.276C33.4369 14.5667 33.4929 13.6333 33.4929 12.476C33.4929 11.5427 33.4462 10.8333 33.3529 10.348C33.2782 9.844 33.1756 9.48933 33.0449 9.284C32.9142 9.06 32.7836 8.91067 32.6529 8.836C32.4849 8.70533 32.2049 8.60267 31.8129 8.528C31.4209 8.43467 30.9542 8.388 30.4129 8.388C29.7782 8.388 29.1716 8.416 28.5929 8.472C28.0142 8.528 27.5476 8.584 27.1929 8.64V16.956C27.3796 16.9747 27.7996 17.0307 28.4529 17.124C29.1249 17.2173 29.8342 17.264 30.5809 17.264ZM40.8226 26V6.484H51.0706V9.06L42.4746 8.948L43.8466 7.632L43.6226 15.92L42.3346 14.828H50.3706V17.32H42.3346L43.6226 16.172L43.8466 24.824L42.4746 23.48L51.0706 23.424V26H40.8226ZM55.5335 26V6.484H58.5015L58.4175 15.948V24.768L57.0735 23.424H65.8375L64.4935 24.768L64.5215 16.088L64.4655 6.484H67.4335L67.3495 16.088L67.4055 24.768L66.0615 23.424H74.7415L73.3975 24.768V16.004L73.3135 6.484H76.2815V26H55.5335ZM88.3921 26.392C87.3655 26.392 86.3948 26.2427 85.4801 25.944C84.5655 25.6453 83.7535 25.1227 83.0441 24.376C82.3535 23.6293 81.8121 22.5933 81.4201 21.268C81.0281 19.9427 80.8321 18.2533 80.8321 16.2C80.8321 14.1467 81.0281 12.4667 81.4201 11.16C81.8121 9.83467 82.3535 8.808 83.0441 8.08C83.7535 7.33333 84.5655 6.82 85.4801 6.54C86.3948 6.24133 87.3655 6.092 88.3921 6.092C89.4188 6.092 90.3801 6.24133 91.2761 6.54C92.1908 6.82 92.9935 7.33333 93.6841 8.08C94.3935 8.808 94.9441 9.82533 95.3361 11.132C95.7281 12.4387 95.9241 14.128 95.9241 16.2C95.9241 18.2533 95.7281 19.9427 95.3361 21.268C94.9441 22.5933 94.3935 23.6293 93.6841 24.376C92.9935 25.1227 92.1908 25.6453 91.2761 25.944C90.3801 26.2427 89.4188 26.392 88.3921 26.392ZM88.3921 23.732C89.1388 23.732 89.7921 23.648 90.3521 23.48C90.9121 23.312 91.3695 22.976 91.7241 22.472C92.0975 21.9493 92.3681 21.1933 92.5361 20.204C92.7228 19.2147 92.8161 17.8987 92.8161 16.256C92.8161 14.632 92.7321 13.3253 92.5641 12.336C92.3961 11.328 92.1348 10.572 91.7801 10.068C91.4255 9.54533 90.9588 9.19067 90.3801 9.004C89.8201 8.81733 89.1575 8.724 88.3921 8.724C87.5895 8.724 86.9081 8.81733 86.3481 9.004C85.8068 9.19067 85.3588 9.54533 85.0041 10.068C84.6495 10.572 84.3881 11.328 84.2201 12.336C84.0521 13.3253 83.9681 14.6413 83.9681 16.284C83.9681 17.908 84.0521 19.2147 84.2201 20.204C84.3881 21.1933 84.6495 21.9493 85.0041 22.472C85.3775 22.976 85.8441 23.312 86.4041 23.48C86.9641 23.648 87.6268 23.732 88.3921 23.732ZM111.295 26L103.539 15.892L110.735 6.484H114.319L106.899 15.724V15.892L115.047 26H111.295ZM100.487 26L100.571 16.088L100.487 6.484H103.483V26H100.487Z" fill="white"/>
<path d="M14.2804 44.168C13.8404 44.168 13.4244 44.104 13.0324 43.976C12.6404 43.848 12.2924 43.624 11.9884 43.304C11.6924 42.984 11.4604 42.54 11.2924 41.972C11.1244 41.404 11.0404 40.68 11.0404 39.8C11.0404 38.92 11.1244 38.2 11.2924 37.64C11.4604 37.072 11.6924 36.632 11.9884 36.32C12.2924 36 12.6404 35.78 13.0324 35.66C13.4244 35.532 13.8404 35.468 14.2804 35.468C14.7204 35.468 15.1324 35.532 15.5164 35.66C15.9084 35.78 16.2524 36 16.5484 36.32C16.8524 36.632 17.0884 37.068 17.2564 37.628C17.4244 38.188 17.5084 38.912 17.5084 39.8C17.5084 40.68 17.4244 41.404 17.2564 41.972C17.0884 42.54 16.8524 42.984 16.5484 43.304C16.2524 43.624 15.9084 43.848 15.5164 43.976C15.1324 44.104 14.7204 44.168 14.2804 44.168ZM14.2804 43.028C14.6004 43.028 14.8804 42.992 15.1204 42.92C15.3604 42.848 15.5564 42.704 15.7084 42.488C15.8684 42.264 15.9844 41.94 16.0564 41.516C16.1364 41.092 16.1764 40.528 16.1764 39.824C16.1764 39.128 16.1404 38.568 16.0684 38.144C15.9964 37.712 15.8844 37.388 15.7324 37.172C15.5804 36.948 15.3804 36.796 15.1324 36.716C14.8924 36.636 14.6084 36.596 14.2804 36.596C13.9364 36.596 13.6444 36.636 13.4044 36.716C13.1724 36.796 12.9804 36.948 12.8284 37.172C12.6764 37.388 12.5644 37.712 12.4924 38.144C12.4204 38.568 12.3844 39.132 12.3844 39.836C12.3844 40.532 12.4204 41.092 12.4924 41.516C12.5644 41.94 12.6764 42.264 12.8284 42.488C12.9884 42.704 13.1884 42.848 13.4284 42.92C13.6684 42.992 13.9524 43.028 14.2804 43.028ZM19.4638 44V35.636H20.7358L20.6998 39.608L20.1358 39.188H24.5638L23.9998 39.608L23.9638 35.636H25.2358V44H23.9638L23.9998 39.872L24.5638 40.292H20.1358L20.6998 39.872L20.7358 44H19.4638ZM26.8649 44.168L26.6489 43.22C26.7609 43.204 26.8649 43.188 26.9609 43.172C27.0569 43.148 27.1369 43.124 27.2009 43.1C27.3609 43.044 27.4849 42.964 27.5729 42.86C27.6609 42.756 27.7289 42.58 27.7769 42.332C27.8329 42.084 27.8729 41.724 27.8969 41.252L28.2689 35.636H33.1169V44H31.8449L31.9049 36.728H29.4329L29.1209 41.372C29.0809 41.94 29.0129 42.416 28.9169 42.8C28.8209 43.184 28.6529 43.476 28.4129 43.676C28.2449 43.82 28.0209 43.936 27.7409 44.024C27.4689 44.12 27.1769 44.168 26.8649 44.168ZM34.2956 44L36.5756 35.636H38.3036L40.5836 44H39.2876L38.6396 41.444L39.3116 41.888H35.5916L36.2396 41.444L35.6036 44H34.2956ZM36.2516 41.372L35.8196 40.796H39.0716L38.6396 41.372L37.3436 36.224L38.0516 36.776H36.8396L37.5356 36.224L36.2516 41.372ZM41.788 44V35.636H43.012L42.964 39.884V42.176L46.06 35.636H47.812V44H46.588L46.636 40.148V36.932L43.3 44H41.788ZM44.776 35.324C44.168 35.324 43.696 35.18 43.36 34.892C43.032 34.604 42.852 34.144 42.82 33.512L43.636 33.476C43.676 33.764 43.78 33.98 43.948 34.124C44.116 34.268 44.392 34.34 44.776 34.34C45.2 34.34 45.496 34.268 45.664 34.124C45.832 33.98 45.936 33.764 45.976 33.476L46.696 33.512C46.68 33.936 46.592 34.284 46.432 34.556C46.272 34.82 46.052 35.016 45.772 35.144C45.5 35.264 45.168 35.324 44.776 35.324ZM50.1669 44V35.636H51.4389L51.4029 39.608L50.8389 39.188H55.2669L54.7029 39.608L54.6669 35.636H55.9389V44H54.6669L54.7029 39.872L55.2669 40.292H50.8389L51.4029 39.872L51.4389 44H50.1669ZM57.58 40.604V39.536H60.436V40.604H57.58ZM62.0366 44L62.3246 35.636H64.0646L65.8046 40.88H65.8886L67.6526 35.636H69.3926L69.6806 44H68.4206L68.3726 36.968H68.2886L66.5726 42.104H65.1326L63.4286 36.968H63.3446L63.2966 44H62.0366ZM70.7995 44L73.0795 35.636H74.8075L77.0875 44H75.7915L75.1435 41.444L75.8155 41.888H72.0955L72.7435 41.444L72.1075 44H70.7995ZM72.7555 41.372L72.3235 40.796H75.5755L75.1435 41.372L73.8475 36.224L74.5555 36.776H73.3435L74.0395 36.224L72.7555 41.372ZM78.2919 44L78.3399 40.112L78.2919 35.636C78.2919 35.636 78.3799 35.628 78.5559 35.612C78.7399 35.596 78.9759 35.576 79.2639 35.552C79.5519 35.528 79.8679 35.508 80.2119 35.492C80.5559 35.476 80.8879 35.468 81.2079 35.468C81.9679 35.468 82.5559 35.708 82.9719 36.188C83.3959 36.66 83.6079 37.372 83.6079 38.324C83.6079 38.916 83.5319 39.408 83.3799 39.8C83.2279 40.184 83.0239 40.484 82.7679 40.7C82.5199 40.916 82.2359 41.072 81.9159 41.168C81.6039 41.256 81.2839 41.3 80.9559 41.3C80.6919 41.3 80.4199 41.292 80.1399 41.276C79.8599 41.252 79.6679 41.24 79.5639 41.24V44H78.2919ZM81.0159 40.256C81.2559 40.256 81.4479 40.24 81.5919 40.208C81.7439 40.176 81.8639 40.12 81.9519 40.04C82.0719 39.92 82.1519 39.708 82.1919 39.404C82.2399 39.1 82.2639 38.7 82.2639 38.204C82.2639 37.804 82.2439 37.5 82.2039 37.292C82.1719 37.076 82.1279 36.924 82.0719 36.836C82.0159 36.74 81.9599 36.676 81.9039 36.644C81.8319 36.588 81.7119 36.544 81.5439 36.512C81.3759 36.472 81.1759 36.452 80.9439 36.452C80.6719 36.452 80.4119 36.464 80.1639 36.488C79.9159 36.512 79.7159 36.536 79.5639 36.56V40.124C79.6439 40.132 79.8239 40.156 80.1039 40.196C80.3919 40.236 80.6959 40.256 81.0159 40.256ZM90.0372 44L86.7132 39.668L89.7972 35.636H91.3332L88.1532 39.596V39.668L91.6452 44H90.0372ZM85.4052 44L85.4412 39.752L85.4052 35.636H86.6892V44H85.4052ZM92.6357 44V35.636H97.0277V36.74L93.3437 36.692L93.9317 36.128L93.8357 39.68L93.2837 39.212H96.7277V40.28H93.2837L93.8357 39.788L93.9317 43.496L93.3437 42.92L97.0277 42.896V44H92.6357ZM100.044 44L100.068 36.704L97.7283 36.74V35.636H103.644V36.74L101.28 36.704L101.304 44H100.044Z" fill="white"/>
</svg>
